<svg width="24" height="24" viewBox="0 0 24 24" fill="none" xmlns="http://www.w3.org/2000/svg">
<path fill-rule="evenodd" clip-rule="evenodd" d="M18.9428 16.4839C18.9428 16.6647 18.9093 16.9007 18.8423 17.192C18.7754 17.4833 18.7051 17.7126 18.6314 17.8801C18.4908 18.2149 18.0823 18.5698 17.406 18.9448C16.7765 19.2863 16.1537 19.4571 15.5376 19.4571C15.3568 19.4571 15.1811 19.4453 15.0103 19.4219C14.8395 19.3985 14.647 19.3566 14.4327 19.2964C14.2185 19.2361 14.0594 19.1875 13.9556 19.1507C13.8518 19.1139 13.666 19.0452 13.3981 18.9448C13.1303 18.8443 12.9662 18.7841 12.906 18.764C12.2497 18.5296 11.6638 18.2517 11.1481 17.9303C10.291 17.4013 9.40539 16.6797 8.49133 15.7657C7.57727 14.8516 6.85573 13.966 6.32671 13.1089C6.00528 12.5932 5.72738 12.0073 5.49301 11.351C5.47292 11.2908 5.41265 11.1267 5.3122 10.8589C5.21176 10.591 5.14312 10.4052 5.10629 10.3014C5.06946 10.1976 5.02091 10.0385 4.96064 9.82425C4.90037 9.60997 4.85852 9.41745 4.83508 9.24669C4.81165 9.07593 4.79993 8.90015 4.79993 8.71934C4.79993 8.10327 4.97069 7.4805 5.3122 6.85104C5.6872 6.1747 6.04211 5.76622 6.37693 5.62559C6.54434 5.55193 6.7737 5.48162 7.06499 5.41466C7.35628 5.34769 7.59233 5.31421 7.77314 5.31421C7.86689 5.31421 7.9372 5.32425 7.98408 5.34434C8.10461 5.38452 8.28207 5.63899 8.51644 6.10773C8.5901 6.23497 8.69055 6.41577 8.81778 6.65015C8.94501 6.88452 9.0622 7.09713 9.16935 7.28798C9.27649 7.47883 9.38028 7.65796 9.48073 7.82537C9.50082 7.85216 9.55941 7.93586 9.65651 8.07649C9.75361 8.21711 9.8256 8.33597 9.87247 8.43307C9.91935 8.53017 9.94278 8.62559 9.94278 8.71934C9.94278 8.85327 9.84736 9.02068 9.65651 9.22158C9.46566 9.42247 9.25807 9.60662 9.03374 9.77403C8.80941 9.94144 8.60182 10.1189 8.41097 10.3064C8.22012 10.4939 8.1247 10.6479 8.1247 10.7685C8.1247 10.8287 8.14144 10.9041 8.17492 10.9945C8.2084 11.0849 8.23686 11.1535 8.2603 11.2004C8.28374 11.2472 8.33061 11.3276 8.40093 11.4414C8.47124 11.5553 8.50974 11.6189 8.51644 11.6323C9.02537 12.5497 9.60796 13.3365 10.2642 13.9928C10.9205 14.649 11.7073 15.2316 12.6247 15.7406C12.6381 15.7472 12.7017 15.7858 12.8155 15.8561C12.9294 15.9264 13.0097 15.9733 13.0566 15.9967C13.1035 16.0201 13.1721 16.0486 13.2625 16.0821C13.3529 16.1156 13.4283 16.1323 13.4885 16.1323C13.6091 16.1323 13.7631 16.0369 13.9506 15.846C14.1381 15.6552 14.3155 15.4476 14.483 15.2232C14.6504 14.9989 14.8345 14.7913 15.0354 14.6005C15.2363 14.4096 15.4037 14.3142 15.5376 14.3142C15.6314 14.3142 15.7268 14.3376 15.8239 14.3845C15.921 14.4314 16.0399 14.5034 16.1805 14.6005C16.3211 14.6976 16.4048 14.7562 16.4316 14.7763C16.599 14.8767 16.7782 14.9805 16.969 15.0876C17.1599 15.1948 17.3725 15.312 17.6068 15.4392C17.8412 15.5664 18.022 15.6669 18.1493 15.7405C18.618 15.9749 18.8725 16.1524 18.9126 16.2729C18.9327 16.3198 18.9428 16.3901 18.9428 16.4838L18.9428 16.4839Z" fill="#009DDE"/>
</svg>
